<?xml version="1.0" encoding="UTF-8" standalone="no"?>
<!DOCTYPE svg PUBLIC "-//W3C//DTD SVG 1.1//EN" "http://www.w3.org/Graphics/SVG/1.1/DTD/svg11.dtd">
<svg width="100%" height="100%" viewBox="0 0 400 400" version="1.1" xmlns="http://www.w3.org/2000/svg" xmlns:xlink="http://www.w3.org/1999/xlink" xml:space="preserve" xmlns:serif="http://www.serif.com/" style="fill-rule:evenodd;clip-rule:evenodd;stroke-linejoin:round;stroke-miterlimit:2;">
    <g transform="matrix(1,0,0,1,-0.516431,-0.955831)">
        <g transform="matrix(1.31264,0,0,1.31264,-429.777,-942.864)">
            <g transform="matrix(123.796,0,0,123.796,329.203,855.205)">
                <path d="M0.302,0.195C0.51,0.195 0.613,0.11 0.613,-0.048L0.613,-0.523L0.384,-0.523L0.384,-0.454C0.355,-0.508 0.308,-0.539 0.228,-0.539C0.115,-0.539 0.017,-0.452 0.017,-0.291L0.017,-0.283C0.017,-0.12 0.116,-0.039 0.23,-0.039C0.309,-0.039 0.36,-0.076 0.384,-0.125L0.384,-0.043C0.384,-0.002 0.37,0.041 0.303,0.041C0.251,0.041 0.241,0.011 0.236,-0.012L0.01,-0.012C0.023,0.123 0.113,0.195 0.302,0.195ZM0.321,-0.195C0.27,-0.195 0.249,-0.23 0.249,-0.28L0.249,-0.288C0.249,-0.341 0.272,-0.372 0.32,-0.372C0.367,-0.372 0.39,-0.337 0.39,-0.289L0.39,-0.281C0.39,-0.23 0.369,-0.195 0.321,-0.195Z" style="fill:white;fill-rule:nonzero;"/>
            </g>
            <g transform="matrix(123.796,0,0,123.796,409.67,855.205)">
                <path d="M0.206,0.014C0.295,0.014 0.342,-0.023 0.372,-0.08L0.372,-0L0.601,-0L0.601,-0.523L0.372,-0.523L0.372,-0.23C0.372,-0.177 0.355,-0.154 0.312,-0.154C0.277,-0.154 0.262,-0.177 0.262,-0.219L0.262,-0.523L0.033,-0.523L0.033,-0.177C0.033,-0.051 0.107,0.014 0.206,0.014Z" style="fill:white;fill-rule:nonzero;"/>
            </g>
            <g transform="matrix(123.796,0,0,123.796,488.652,855.205)">
                <path d="M0.004,-0L0.498,-0L0.498,-0.167L0.313,-0.167L0.514,-0.502L0.514,-0.523L0.025,-0.523L0.025,-0.354L0.192,-0.354L0.004,-0.021L0.004,-0Z" style="fill:white;fill-rule:nonzero;"/>
            </g>
        </g>
        <g transform="matrix(1,0,0,1,-923.16,56.607)">
            <g transform="matrix(162.5,0,0,162.5,921.12,250.905)">
                <path d="M0.037,-0L0.266,-0L0.266,-0.294C0.266,-0.332 0.278,-0.356 0.316,-0.356C0.34,-0.356 0.36,-0.336 0.36,-0.303L0.36,-0L0.586,-0L0.586,-0.294C0.586,-0.332 0.598,-0.356 0.636,-0.356C0.661,-0.356 0.68,-0.336 0.68,-0.303L0.68,-0L0.908,-0L0.908,-0.351C0.908,-0.471 0.841,-0.539 0.74,-0.539C0.674,-0.539 0.619,-0.515 0.57,-0.458C0.546,-0.509 0.504,-0.539 0.433,-0.539C0.35,-0.539 0.296,-0.493 0.266,-0.443L0.266,-0.523L0.037,-0.523L0.037,-0Z" style="fill:white;fill-rule:nonzero;"/>
            </g>
            <g transform="matrix(162.5,0,0,162.5,1074.2,250.905)">
                <path d="M0.193,0.014C0.281,0.014 0.326,-0.026 0.344,-0.059L0.344,-0L0.564,-0L0.564,-0.336C0.564,-0.471 0.472,-0.539 0.305,-0.539C0.141,-0.539 0.04,-0.468 0.033,-0.339L0.245,-0.339C0.247,-0.355 0.254,-0.384 0.291,-0.384C0.336,-0.384 0.338,-0.352 0.338,-0.319L0.338,-0.316L0.301,-0.316C0.106,-0.316 0.015,-0.269 0.015,-0.145C0.015,-0.032 0.1,0.014 0.193,0.014ZM0.282,-0.136C0.256,-0.136 0.24,-0.147 0.24,-0.165C0.24,-0.19 0.249,-0.2 0.303,-0.2L0.338,-0.2L0.338,-0.183C0.338,-0.156 0.315,-0.136 0.282,-0.136Z" style="fill:white;fill-rule:nonzero;"/>
            </g>
            <g transform="matrix(162.5,0,0,162.5,1171.37,250.905)">
                <path d="M0.037,-0L0.266,-0L0.266,-0.281C0.266,-0.334 0.284,-0.357 0.325,-0.357C0.361,-0.357 0.375,-0.334 0.375,-0.292L0.375,-0L0.604,-0L0.604,-0.35C0.604,-0.474 0.537,-0.539 0.44,-0.539C0.352,-0.539 0.296,-0.495 0.266,-0.439L0.266,-0.523L0.037,-0.523L0.037,-0Z" style="fill:white;fill-rule:nonzero;"/>
            </g>
            <g transform="matrix(162.5,0,0,162.5,1275.05,250.905)">
                <path d="M0.152,0.014C0.225,0.014 0.278,-0.039 0.278,-0.106C0.278,-0.172 0.225,-0.226 0.152,-0.226C0.081,-0.226 0.03,-0.172 0.03,-0.106C0.03,-0.039 0.081,0.014 0.152,0.014Z" style="fill:white;fill-rule:nonzero;"/>
            </g>
        </g>
    </g>
</svg>
