<?xml version="1.0" encoding="UTF-8" standalone="no"?>
<!DOCTYPE svg PUBLIC "-//W3C//DTD SVG 1.1//EN" "http://www.w3.org/Graphics/SVG/1.1/DTD/svg11.dtd">
<svg width="100%" height="100%" viewBox="0 0 712 712" version="1.1" xmlns="http://www.w3.org/2000/svg" xmlns:xlink="http://www.w3.org/1999/xlink" xml:space="preserve" xmlns:serif="http://www.serif.com/" style="fill-rule:evenodd;clip-rule:evenodd;stroke-linejoin:round;stroke-miterlimit:2;">
    <g id="Artboard1" transform="matrix(1,0,0,1,-444.29,-94.8062)">
        <rect x="444.29" y="94.806" width="711.848" height="711.363" style="fill:none;"/>
        <g transform="matrix(1,0,0,1,50.3109,-5.15577)">
            <g transform="matrix(1,0,0,1,175.48,-140.572)">
                <path d="M928.104,315.54C928.104,275.247 895.392,242.534 855.099,242.534L293.748,242.534C253.455,242.534 220.742,275.247 220.742,315.54L220.742,876.891C220.742,917.184 253.455,949.896 293.748,949.896L855.099,949.896C895.392,949.896 928.104,917.184 928.104,876.891L928.104,315.54Z" style="fill:rgb(79,70,229);"/>
            </g>
            <g transform="matrix(1,0,0,1,-167.773,272.755)">
                <g transform="matrix(300,0,0,300,896.691,456.131)">
                    <rect x="0.09" y="-0.723" width="0.15" height="0.723" style="fill:white;fill-rule:nonzero;"/>
                </g>
                <g transform="matrix(300,0,0,300,996.154,456.131)">
                    <path d="M0.667,-0.017C0.577,0.006 0.499,0.018 0.433,0.018C0.308,0.018 0.213,-0.015 0.146,-0.08C0.079,-0.146 0.045,-0.24 0.045,-0.362C0.045,-0.484 0.079,-0.577 0.146,-0.643C0.213,-0.708 0.308,-0.741 0.432,-0.741C0.511,-0.741 0.589,-0.731 0.667,-0.713L0.667,-0.595C0.577,-0.626 0.503,-0.642 0.445,-0.642C0.368,-0.642 0.309,-0.617 0.268,-0.568C0.226,-0.52 0.205,-0.45 0.205,-0.361C0.205,-0.274 0.227,-0.206 0.272,-0.157C0.317,-0.108 0.378,-0.083 0.457,-0.083C0.474,-0.083 0.494,-0.085 0.517,-0.09L0.517,-0.328L0.667,-0.328L0.667,-0.017Z" style="fill:white;fill-rule:nonzero;"/>
                </g>
            </g>
        </g>
    </g>
</svg>
